<svg width="1060" height="1400" viewBox="0 0 1060 1400" fill="none" xmlns="http://www.w3.org/2000/svg" style="">
<path d="M579.393 1254.36C517.127 1254.36 449.912 1261.96 389.339 1245.93C258.264 1211.23 116.784 1145.15 56.7436 1016.02C29.8935 958.276 34.5113 877.99 39.5008 816.006C49.3188 694.036 116.536 583.859 190.855 489.924C271.862 387.536 363.493 289.233 466.74 209.057C547.572 146.289 642.612 84.4556 741.093 53.6803C797.402 36.0836 867.421 29.0119 925.783 41.2272C989.139 54.4879 1009.33 155.889 1016.02 207.525C1051.29 479.588 966.969 754.353 865.816 1003.95C819.094 1119.24 755.763 1216.55 673.079 1308.96C656.292 1327.72 630.834 1344.45 617.328 1364.71" stroke="#FF1B1B" stroke-width="70" stroke-linecap="round" class="iaLNemXo_0"></path>
<style data-made-with="vivus-instant">.iaLNemXo_0{stroke-dasharray:3537 3539;stroke-dashoffset:3538;animation:iaLNemXo_draw 466ms ease-in 0ms forwards;}@keyframes iaLNemXo_draw{100%{stroke-dashoffset:0;}}@keyframes iaLNemXo_fade{0%{stroke-opacity:1;}91.83673469387755%{stroke-opacity:1;}100%{stroke-opacity:0;}}</style></svg>
