<svg width="1116" height="1182" viewBox="0 0 1116 1182" fill="none" xmlns="http://www.w3.org/2000/svg" style="">
<path d="M1080.92 36C1008.59 129.831 920.214 213.685 839.325 300.199C710.71 437.757 583.522 577.327 448.679 708.854C373.561 782.125 298.81 854.721 227.779 932.053C173.63 991.005 120.637 1051.66 64.7381 1108.89C54.0036 1119.88 40.9249 1131.66 36 1146.44" stroke="#FF1B1B" stroke-width="70" stroke-linecap="round" class="jNxuaCYr_0"></path>
<path d="M167.045 149.803C179.356 168.742 200.569 183.377 216.092 199.615C268.359 254.29 317.263 311.45 365.913 369.362C520.709 553.626 688.228 725.571 839.325 913.086C890.889 977.079 942.198 1040.97 989.337 1108.31C991.768 1111.79 1005.05 1135.07 1005.05 1132.64" stroke="#FF1B1B" stroke-width="70" stroke-linecap="round" class="jNxuaCYr_1"></path>
<style data-made-with="vivus-instant">.jNxuaCYr_0{stroke-dasharray:1526 1528;stroke-dashoffset:1527;animation:jNxuaCYr_draw 333ms ease-in 0ms forwards;}.jNxuaCYr_1{stroke-dasharray:1294 1296;stroke-dashoffset:1295;animation:jNxuaCYr_draw 333ms ease-in 166ms forwards;}@keyframes jNxuaCYr_draw{100%{stroke-dashoffset:0;}}@keyframes jNxuaCYr_fade{0%{stroke-opacity:1;}91.48936170212767%{stroke-opacity:1;}100%{stroke-opacity:0;}}</style></svg>
