<svg width="600" height="315" viewBox="0 0 600 315" fill="none" xmlns="http://www.w3.org/2000/svg">
<rect width="600" height="315" fill="#2C41FC"/>
<line x1="133.994" y1="279.5" x2="463.994" y2="279.035" stroke="#848FF2" stroke-width="8"/>
<path d="M166.62 247.72L164.25 245.5C163.68 245.65 162.03 245.77 161.19 245.77C159.63 245.77 146.91 245.77 145.02 245.77C143.79 245.77 142.53 245.62 141.36 245.44V249.64C142.77 249.49 143.79 249.43 145.02 249.43C146.91 249.43 158.85 249.43 160.68 249.43C159.9 250.9 157.56 253.54 155.13 255.01L158.25 257.5C161.22 255.4 164.07 251.59 165.48 249.25C165.75 248.83 166.32 248.11 166.62 247.72ZM154.41 251.74H150.06C150.21 252.73 150.24 253.51 150.24 254.47C150.24 259.39 149.52 262.54 145.74 265.18C144.63 266.02 143.55 266.53 142.56 266.86L146.07 269.71C154.23 265.3 154.41 259.18 154.41 251.74ZM174.029 245.2L171.179 248.23C173.369 249.73 177.149 253 178.709 254.68L181.769 251.56C179.999 249.73 176.099 246.61 174.029 245.2ZM170.249 265.18L172.799 269.14C176.999 268.42 180.869 266.77 183.929 264.94C188.759 262.03 192.749 257.89 194.999 253.81L192.689 249.61C190.769 253.66 186.869 258.22 181.739 261.28C178.829 262.99 174.959 264.52 170.249 265.18ZM220.169 243.37L217.769 244.36C218.579 245.5 219.509 247.3 220.139 248.5L222.539 247.48C221.969 246.37 220.919 244.48 220.169 243.37ZM223.709 242.02L221.339 242.98C222.149 244.12 223.109 245.86 223.739 247.12L226.139 246.1C225.599 245.05 224.489 243.13 223.709 242.02ZM208.919 254.68L206.279 257.41C209.789 259.63 215.459 263.8 218.099 266.26L220.949 262.87C218.189 260.65 212.609 256.81 208.919 254.68ZM223.049 249.58L219.989 247.69C219.329 247.9 218.309 248.05 217.379 248.05H208.859L207.449 251.44H217.619C217.049 253.78 215.189 257.2 213.149 259.6C210.599 262.6 206.999 265.75 200.729 267.7L204.209 270.7C209.939 268.54 213.809 265.18 216.629 261.67C219.299 258.34 221.129 254.5 222.059 251.74C222.329 250.99 222.719 250.15 223.049 249.58ZM213.119 244.96L208.799 243.61C208.529 244.63 207.869 246.01 207.419 246.76C205.919 249.34 203.129 253.48 197.879 256.72L201.119 259.21C205.409 256.24 209.249 251.65 211.289 248.02C211.649 247.39 212.399 246.01 213.119 244.96ZM229.529 254.11V258.85C230.669 258.76 232.679 258.67 234.359 258.67C237.899 258.67 247.769 258.67 250.499 258.67C251.759 258.67 253.289 258.82 254.009 258.85V254.11C253.199 254.17 251.879 254.32 250.469 254.32C247.799 254.32 237.899 254.32 234.359 254.32C232.799 254.32 230.639 254.2 229.529 254.11ZM263.489 244.99V248.89C264.359 248.8 265.619 248.77 266.609 248.77C268.379 248.77 276.419 248.77 278.069 248.77C279.179 248.77 280.589 248.83 281.369 248.89V244.99C280.559 245.11 279.089 245.17 278.129 245.17C276.389 245.17 268.499 245.17 266.609 245.17C265.589 245.17 264.299 245.11 263.489 244.99ZM283.919 253.72L281.249 252.04C280.829 252.25 280.019 252.37 279.029 252.37C276.989 252.37 266.249 252.37 264.209 252.37C263.249 252.37 261.989 252.28 260.699 252.16V256.06C261.959 255.97 263.459 255.94 264.209 255.94C266.879 255.94 277.169 255.94 278.669 255.94C278.159 257.59 277.199 259.48 275.609 261.1C273.299 263.47 269.729 265.42 265.199 266.38L268.199 269.77C272.039 268.66 275.879 266.65 278.909 263.26C281.129 260.8 282.419 257.86 283.349 254.95C283.439 254.65 283.709 254.11 283.919 253.72ZM288.659 256.36L290.519 260.14C295.259 258.73 300.119 256.48 303.509 254.47C307.049 252.34 310.709 249.52 313.439 246.76L310.199 243.7C308.249 246.07 304.829 249.07 301.769 250.96C298.409 253.03 294.029 254.98 288.659 256.36ZM301.139 252.91V265.42C301.139 266.74 301.019 268.63 300.899 269.35H305.669C305.459 268.6 305.399 266.74 305.399 265.42V251.89L301.139 252.91ZM324.029 245.2L321.179 248.23C323.369 249.73 327.149 253 328.709 254.68L331.769 251.56C329.999 249.73 326.099 246.61 324.029 245.2ZM320.249 265.18L322.799 269.14C326.999 268.42 330.869 266.77 333.929 264.94C338.759 262.03 342.749 257.89 344.999 253.81L342.689 249.61C340.769 253.66 336.869 258.22 331.739 261.28C328.829 262.99 324.959 264.52 320.249 265.18ZM361.379 243.94L357.419 243.61C357.329 245.14 356.939 246.97 356.339 248.59C355.079 251.89 352.769 255.13 348.929 258.67L352.139 261.07C353.159 259.75 353.999 258.67 354.899 257.77C356.039 256.69 357.929 255.7 359.579 255.7C360.839 255.7 362.039 256.33 362.039 258.25C362.069 259.87 362.009 262.42 361.889 263.83H365.489C365.459 261.94 365.369 258.67 365.369 257.05C365.369 254.26 363.479 252.79 360.989 252.79C359.969 252.79 358.379 253 357.569 253.36C358.409 252.16 359.279 250.45 359.909 248.98C360.749 246.82 361.139 245.05 361.379 243.94ZM350.069 246.73V250.21C351.719 250.36 353.909 250.42 355.139 250.42C358.799 250.42 364.829 250.15 369.059 249.55L369.089 246.07C364.739 246.85 359.309 247.06 355.349 247.06C353.819 247.06 351.599 246.94 350.069 246.73ZM373.829 255.25L372.359 251.74C371.219 252.31 370.169 252.79 368.999 253.3C367.199 254.14 365.309 254.86 362.549 256.3C358.949 258.1 354.659 260.56 354.659 264.73C354.659 268.6 358.169 269.77 362.849 269.77C365.699 269.77 369.359 269.5 371.369 269.23L371.489 265.36C368.849 265.9 365.489 266.23 362.939 266.23C360.029 266.23 358.589 265.78 358.589 264.13C358.589 262.48 360.059 261.19 362.789 259.78C365.609 258.34 368.309 257.26 370.259 256.51C371.279 256.12 372.899 255.52 373.829 255.25ZM380.309 254.92V257.71H388.859V254.92H380.309ZM378.869 245.26V248.29H388.529V245.26H378.869ZM377.819 250.3V253.39H392.489V250.3H377.819ZM382.259 242.53V251.86H385.589V242.53H382.259ZM390.419 243.25C387.929 249.94 383.249 255.19 377.159 258.19C377.879 258.82 379.109 260.2 379.589 260.92C385.799 257.41 390.779 251.65 393.749 244.21L390.419 243.25ZM383.639 259.18V267.25C383.639 267.58 383.519 267.67 383.129 267.67C382.739 267.67 381.449 267.67 380.279 267.64C380.699 268.51 381.149 269.8 381.299 270.73C383.189 270.73 384.599 270.67 385.679 270.19C386.729 269.71 386.999 268.87 386.999 267.31V259.18H383.639ZM388.109 254.92V255.46C387.359 256.69 385.739 258.49 384.389 259.51C384.869 259.96 385.709 260.8 386.099 261.37C387.929 260.08 389.969 258.07 391.439 256.27L389.489 254.74L388.829 254.92H388.109ZM377.579 261.97L377.939 265.18C381.839 264.85 387.329 264.37 392.459 263.89V260.83C387.119 261.28 381.389 261.73 377.579 261.97ZM394.859 248.02V251.35H405.869V248.02H394.859ZM395.279 242.5C394.469 247.75 392.909 252.79 390.359 255.82C391.169 256.39 392.639 257.71 393.239 258.37C395.999 254.8 397.889 249.07 398.909 243.07L395.279 242.5ZM400.529 250.03C399.629 258.91 397.019 264.55 390.179 267.55C390.839 268.33 391.889 269.98 392.249 270.82C399.839 267.04 402.929 260.62 404.219 250.36L400.529 250.03ZM396.839 250.6L393.569 251.11C395.039 260.11 397.649 267.13 403.679 270.73C404.219 269.74 405.359 268.33 406.199 267.61C400.649 264.73 398.039 258.22 396.839 250.6ZM416.159 243.7L415.559 247.18C419.159 247.75 424.739 248.41 427.889 248.68L428.369 245.14C425.279 244.96 419.519 244.33 416.159 243.7ZM429.449 253.21L427.229 250.72C426.929 250.84 426.089 251.02 425.549 251.08C423.029 251.38 416.249 251.68 414.809 251.71C413.729 251.71 412.649 251.68 411.959 251.62L412.289 255.76C412.919 255.64 413.849 255.49 414.899 255.4C416.609 255.25 420.179 254.95 422.279 254.89C419.549 257.77 413.429 263.86 411.869 265.42C411.059 266.2 410.339 266.83 409.799 267.31L413.339 269.77C415.409 267.16 417.659 264.7 418.709 263.65C419.429 262.9 420.059 262.42 420.659 262.42C421.289 262.42 421.919 262.81 422.249 263.89C422.489 264.64 422.819 266.05 423.149 266.95C423.869 268.87 425.429 269.5 428.249 269.5C429.809 269.5 432.899 269.29 434.129 269.08L434.399 265.15C432.869 265.45 430.799 265.66 428.519 265.66C427.349 265.66 426.689 265.21 426.389 264.28C426.149 263.47 425.819 262.33 425.549 261.55C425.129 260.41 424.589 259.75 423.749 259.51C423.389 259.36 422.849 259.27 422.579 259.27C423.299 258.52 426.119 255.91 427.469 254.74C428.009 254.29 428.639 253.75 429.449 253.21ZM437.435 247.39L437.825 251.5C441.305 250.72 447.425 250.09 450.245 249.79C448.205 251.32 445.775 254.71 445.775 259.03C445.775 265.54 451.715 268.93 458.015 269.32L459.395 265.21C454.325 264.94 449.705 263.17 449.705 258.22C449.705 254.68 452.435 250.78 456.035 249.82C457.655 249.46 460.235 249.43 461.855 249.43L461.825 245.56C459.695 245.65 456.425 245.83 453.335 246.1C447.815 246.58 442.895 247 440.375 247.24C439.805 247.3 438.605 247.36 437.435 247.39Z" fill="white"/>
<path d="M388.5 130C388.5 178.877 348.877 218.5 300 218.5C251.123 218.5 211.5 178.877 211.5 130C211.5 81.1228 251.123 41.5 300 41.5C348.877 41.5 388.5 81.1228 388.5 130Z" fill="#2C41FC" stroke="white" stroke-width="5"/>
<path d="M353.676 79.2759C347.021 77.1442 339.706 76.2305 332.691 76.2305C321 76.2305 308.409 78.6668 299.716 85.3667C291.022 78.6668 278.431 76.2305 266.74 76.2305C255.049 76.2305 242.458 78.6668 233.764 85.3667V174.596C233.764 176.119 235.263 177.641 236.762 177.641C237.362 177.641 237.662 177.337 238.261 177.337C246.355 173.378 258.046 170.637 266.74 170.637C278.431 170.637 291.022 173.073 299.716 179.773C307.81 174.596 322.499 170.637 332.691 170.637C342.584 170.637 352.777 172.464 361.17 177.032C361.77 177.337 362.069 177.337 362.669 177.337C364.168 177.337 365.667 175.814 365.667 174.291V85.3667C362.069 82.6259 358.172 80.7986 353.676 79.2759ZM353.676 161.501C347.081 159.369 339.886 158.456 332.691 158.456C322.499 158.456 307.81 162.415 299.716 167.592V97.5483C307.81 92.371 322.499 88.412 332.691 88.412C339.886 88.412 347.081 89.3257 353.676 91.4574V161.501Z" fill="white"/>
<path d="M348.443 102.741C348.762 105.289 348.947 108.262 349.001 111.659C349.054 115.003 349.001 118.4 348.841 121.851C348.735 125.248 348.496 128.487 348.125 131.565C347.753 134.591 347.302 137.033 346.771 138.891C346.399 140.005 345.948 141.173 345.418 142.394C344.94 143.562 344.409 144.624 343.825 145.579C342.975 147.012 341.94 148.286 340.72 149.401C339.499 150.463 338.145 151.392 336.659 152.188C335.226 152.931 333.686 153.515 332.041 153.94C330.448 154.365 328.856 154.604 327.263 154.656C324.449 154.763 321.769 154.365 319.221 153.462C316.726 152.507 314.417 151.02 312.294 149.003C310.701 147.463 309.427 145.818 308.472 144.066C307.516 142.315 306.773 140.483 306.242 138.572C305.711 136.608 305.366 134.591 305.207 132.521C305.101 130.45 305.048 128.327 305.048 126.151C305.048 125.142 305.021 123.894 304.968 122.408C304.968 120.869 304.968 119.303 304.968 117.71C304.968 116.065 304.968 114.473 304.968 112.933C304.968 111.393 304.994 110.093 305.048 109.031C305.048 108.341 305.048 107.598 305.048 106.802C305.048 105.953 305.074 105.13 305.127 104.333C305.233 103.484 305.392 102.688 305.605 101.945C305.817 101.148 306.136 100.432 306.561 99.7948C307.038 99.1049 307.701 98.6005 308.551 98.282C309.4 97.9635 310.276 97.8042 311.179 97.8042C312.134 97.8042 313.036 97.9902 313.886 98.3616C314.735 98.733 315.425 99.2642 315.956 99.9541C316.221 100.379 316.407 100.803 316.514 101.228C316.619 101.653 316.699 102.131 316.753 102.661C316.858 104.413 316.912 106.404 316.912 108.633C316.965 110.863 316.965 113.039 316.912 115.162C316.912 117.233 316.885 119.144 316.832 120.895C316.779 122.647 316.753 123.948 316.753 124.797C316.753 127.982 316.912 130.875 317.23 133.476C317.549 136.024 318.292 138.147 319.46 139.846C320.521 141.386 321.769 142.367 323.202 142.792C324.635 143.217 326.069 143.35 327.502 143.19C328.829 143.031 330.156 142.553 331.483 141.757C332.863 140.908 333.952 139.687 334.748 138.094C335.066 137.51 335.331 136.847 335.544 136.104C335.756 135.36 335.915 134.671 336.022 134.034C336.234 132.016 336.42 129.681 336.579 127.027C336.738 124.319 336.871 121.559 336.977 118.746C337.083 115.932 337.137 113.172 337.137 110.465C337.137 107.757 337.11 105.316 337.057 103.139C337.163 102.184 337.455 101.308 337.933 100.511C338.357 99.8216 338.968 99.2107 339.764 98.6801C340.56 98.1494 341.648 97.8838 343.029 97.8838C344.144 97.9367 345.046 98.2291 345.736 98.7597C346.426 99.2374 346.983 99.7681 347.408 100.352C347.886 101.042 348.231 101.838 348.443 102.741Z" fill="#FDFDFD"/>
</svg>
