<svg width="600" height="352" viewBox="0 0 600 352" fill="none" xmlns="http://www.w3.org/2000/svg">
<rect y="18" width="600" height="315" rx="10" fill="#FF0000"/>
<path d="M61.4375 65.7188L105.969 162.984L150.5 65.7188H198.4L128.234 201.363V279H83.7031V201.363L13.3906 65.7188H61.4375ZM315.881 65.7188V279H272.082V65.7188H315.881ZM381.506 65.7188V100.143H207.482V65.7188H381.506ZM571.496 167.525V252.047C568.176 256.051 563.049 260.396 556.115 265.084C549.182 269.674 540.246 273.629 529.309 276.949C518.371 280.27 505.139 281.93 489.611 281.93C475.842 281.93 463.293 279.684 451.965 275.191C440.637 270.602 430.871 263.912 422.668 255.123C414.562 246.334 408.312 235.592 403.918 222.896C399.523 210.104 397.326 195.504 397.326 179.098V165.768C397.326 149.361 399.426 134.762 403.625 121.969C407.922 109.176 414.025 98.3848 421.936 89.5957C429.846 80.8066 439.27 74.1172 450.207 69.5273C461.145 64.9375 473.303 62.6426 486.682 62.6426C505.236 62.6426 520.471 65.6699 532.385 71.7246C544.299 77.6816 553.381 85.9824 559.631 96.627C565.979 107.174 569.885 119.283 571.35 132.955H528.723C527.648 125.729 525.598 119.43 522.57 114.059C519.543 108.687 515.197 104.488 509.533 101.461C503.967 98.4336 496.74 96.9199 487.854 96.9199C480.529 96.9199 473.986 98.4336 468.225 101.461C462.561 104.391 457.775 108.736 453.869 114.498C449.963 120.26 446.984 127.389 444.934 135.885C442.883 144.381 441.857 154.244 441.857 165.475V179.098C441.857 190.23 442.932 200.094 445.08 208.688C447.229 217.184 450.402 224.361 454.602 230.221C458.898 235.982 464.172 240.328 470.422 243.258C476.672 246.188 483.947 247.652 492.248 247.652C499.182 247.652 504.943 247.066 509.533 245.895C514.221 244.723 517.98 243.307 520.812 241.646C523.742 239.889 525.988 238.229 527.551 236.666V198.873H487.414V167.525H571.496Z" fill="white"/>
</svg>
